<svg xmlns="http://www.w3.org/2000/svg" xmlns:xlink="http://www.w3.org/1999/xlink" width="200" zoomAndPan="magnify" viewBox="0 0 150 149.999998" height="200" preserveAspectRatio="xMidYMid meet" version="1.0"><defs><clipPath id="id1"><path d="M 5.589844 5.589844 L 144.339844 5.589844 L 144.339844 144.339844 L 5.589844 144.339844 Z M 5.589844 5.589844 " clip-rule="nonzero"/></clipPath></defs><rect x="-15" width="180" fill="rgb(100%, 100%, 100%)" y="-15" height="179.999997" fill-opacity="1"/><rect x="-15" width="180" fill="rgb(100%, 100%, 100%)" y="-15" height="179.999997" fill-opacity="1"/><rect x="-15" width="180" fill="rgb(100%, 100%, 100%)" y="-15" height="179.999997" fill-opacity="1"/><g clip-path="url(#id1)"><path fill="rgb(96.859741%, 31.369019%, 13.729858%)" d="M 75.371094 5.613281 C 75.238281 5.613281 75.105469 5.589844 74.972656 5.589844 C 74.851562 5.589844 74.738281 5.613281 74.617188 5.613281 C 36.527344 5.800781 5.589844 36.832031 5.589844 74.964844 C 5.589844 113.21875 36.714844 144.339844 74.964844 144.339844 C 113.21875 144.339844 144.339844 113.21875 144.339844 74.964844 C 144.339844 36.851562 113.4375 5.832031 75.371094 5.613281 Z M 124.621094 35.753906 L 107.390625 35.753906 C 104.074219 27.0625 99.71875 19.9375 94.667969 14.796875 C 106.605469 18.722656 116.976562 26.101562 124.621094 35.753906 Z M 77.980469 11.929688 C 86.945312 13.566406 95.242188 22.367188 100.859375 35.753906 L 77.980469 35.753906 Z M 71.949219 11.929688 L 71.949219 35.753906 L 49.074219 35.753906 C 54.691406 22.367188 62.984375 13.566406 71.949219 11.929688 Z M 55.289062 14.796875 C 50.230469 19.9375 45.875 27.0625 42.550781 35.753906 L 25.3125 35.753906 C 32.960938 26.097656 43.332031 18.71875 55.289062 14.796875 Z M 25.3125 114.179688 L 42.546875 114.179688 C 45.871094 122.875 50.230469 130 55.289062 135.140625 C 43.335938 131.226562 32.960938 123.84375 25.3125 114.179688 Z M 71.949219 138 C 62.984375 136.371094 54.691406 127.570312 49.074219 114.179688 L 71.949219 114.179688 Z M 77.980469 138 L 77.980469 114.179688 L 100.847656 114.179688 C 95.234375 127.5625 86.945312 136.359375 77.980469 138 Z M 94.636719 135.148438 C 99.695312 130.007812 104.054688 122.882812 107.375 114.183594 L 124.613281 114.183594 C 116.972656 123.84375 106.59375 131.226562 94.636719 135.148438 Z M 128.820312 108.144531 L 109.410156 108.144531 C 110.226562 105.449219 110.96875 102.65625 111.597656 99.722656 C 111.945312 98.09375 110.90625 96.496094 109.28125 96.144531 C 107.636719 95.765625 106.046875 96.835938 105.703125 98.464844 C 104.976562 101.867188 104.085938 105.085938 103.082031 108.144531 L 77.980469 108.144531 L 77.980469 99.097656 C 77.980469 97.429688 76.632812 96.078125 74.964844 96.078125 C 73.300781 96.078125 71.949219 97.429688 71.949219 99.097656 L 71.949219 108.144531 L 46.835938 108.144531 C 45.835938 105.085938 44.941406 101.867188 44.21875 98.464844 C 43.875 96.835938 42.257812 95.765625 40.640625 96.144531 C 39.011719 96.492188 37.972656 98.09375 38.324219 99.722656 C 38.953125 102.65625 39.691406 105.453125 40.515625 108.144531 L 21.113281 108.144531 C 15.636719 99.289062 12.300781 89.011719 11.78125 77.980469 L 26.703125 77.980469 C 28.371094 77.980469 29.722656 76.632812 29.722656 74.964844 C 29.722656 73.300781 28.371094 71.949219 26.703125 71.949219 L 11.773438 71.949219 C 12.300781 60.921875 15.628906 50.640625 21.105469 41.785156 L 40.515625 41.785156 C 39.699219 44.484375 38.957031 47.277344 38.328125 50.207031 C 37.980469 51.832031 39.019531 53.429688 40.644531 53.78125 C 42.269531 54.136719 43.875 53.097656 44.222656 51.460938 C 44.949219 48.066406 45.839844 44.84375 46.84375 41.785156 L 71.949219 41.785156 L 71.949219 50.835938 C 71.949219 52.5 73.300781 53.851562 74.964844 53.851562 C 76.632812 53.851562 77.980469 52.5 77.980469 50.835938 L 77.980469 41.785156 L 103.089844 41.785156 C 104.089844 44.84375 104.984375 48.058594 105.707031 51.460938 C 106.007812 52.878906 107.257812 53.851562 108.652344 53.851562 C 108.863281 53.851562 109.074219 53.832031 109.296875 53.78125 C 110.925781 53.433594 111.964844 51.832031 111.613281 50.203125 C 110.988281 47.277344 110.246094 44.484375 109.429688 41.785156 L 128.824219 41.785156 C 134.300781 50.640625 137.636719 60.921875 138.15625 71.949219 L 123.226562 71.949219 C 121.5625 71.949219 120.210938 73.300781 120.210938 74.964844 C 120.210938 76.632812 121.5625 77.980469 123.226562 77.980469 L 138.15625 77.980469 C 137.632812 89.015625 134.296875 99.296875 128.820312 108.144531 Z M 102.113281 59.882812 C 95.457031 59.882812 90.046875 65.296875 90.046875 71.949219 L 90.046875 77.980469 C 90.046875 84.636719 95.457031 90.046875 102.113281 90.046875 C 108.765625 90.046875 114.179688 84.636719 114.179688 77.980469 L 114.179688 71.949219 C 114.179688 65.296875 108.765625 59.882812 102.113281 59.882812 Z M 108.144531 77.980469 C 108.144531 81.304688 105.4375 84.015625 102.113281 84.015625 C 98.789062 84.015625 96.078125 81.304688 96.078125 77.980469 L 96.078125 71.949219 C 96.078125 68.625 98.789062 65.917969 102.113281 65.917969 C 105.4375 65.917969 108.144531 68.625 108.144531 71.949219 Z M 48.761719 72.0625 L 47.867188 71.914062 C 42.578125 71.050781 41.785156 69.675781 41.785156 68.933594 C 41.785156 67.734375 44.195312 65.917969 47.824219 65.917969 C 51.390625 65.917969 53.742188 67.613281 53.863281 68.832031 C 54.019531 70.484375 55.492188 71.738281 57.152344 71.546875 C 58.8125 71.386719 60.023438 69.917969 59.867188 68.257812 C 59.40625 63.480469 54.230469 59.878906 47.820312 59.878906 C 41.050781 59.878906 35.746094 63.855469 35.746094 68.925781 C 35.746094 73.652344 39.496094 76.65625 46.890625 77.863281 L 47.378906 74.886719 L 47.78125 78.011719 C 52.796875 78.839844 53.847656 80.09375 53.847656 81 C 53.847656 82.199219 51.4375 84.015625 47.808594 84.015625 C 44.242188 84.015625 41.890625 82.3125 41.769531 81.09375 C 41.613281 79.441406 40.140625 78.167969 38.480469 78.378906 C 36.820312 78.539062 35.609375 80.007812 35.765625 81.667969 C 36.222656 86.453125 41.402344 90.046875 47.8125 90.046875 C 54.582031 90.046875 59.882812 86.070312 59.882812 81 C 59.882812 76.28125 56.144531 73.277344 48.761719 72.0625 Z M 84.015625 65.917969 C 85.679688 65.917969 87.03125 64.566406 87.03125 62.902344 C 87.03125 61.234375 85.679688 59.882812 84.015625 59.882812 L 68.933594 59.882812 C 67.269531 59.882812 65.917969 61.234375 65.917969 62.902344 L 65.917969 87.03125 C 65.917969 88.695312 67.269531 90.046875 68.933594 90.046875 L 84.015625 90.046875 C 85.679688 90.046875 87.03125 88.695312 87.03125 87.03125 C 87.03125 85.367188 85.679688 84.015625 84.015625 84.015625 L 71.949219 84.015625 L 71.949219 77.980469 L 81 77.980469 C 82.664062 77.980469 84.015625 76.632812 84.015625 74.964844 C 84.015625 73.300781 82.664062 71.949219 81 71.949219 L 71.949219 71.949219 L 71.949219 65.917969 Z M 84.015625 65.917969 " fill-opacity="1" fill-rule="nonzero"/></g></svg>