<svg xmlns="http://www.w3.org/2000/svg" xmlns:xlink="http://www.w3.org/1999/xlink" width="200" zoomAndPan="magnify" viewBox="0 0 150 149.999998" height="200" preserveAspectRatio="xMidYMid meet" version="1.0"><defs><clipPath id="id1"><path d="M 0 13.125 L 120 13.125 L 120 127 L 0 127 Z M 0 13.125 " clip-rule="nonzero"/></clipPath><clipPath id="id2"><path d="M 99 52 L 150 52 L 150 136.875 L 99 136.875 Z M 99 52 " clip-rule="nonzero"/></clipPath></defs><rect x="-15" width="180" fill="rgb(100%, 100%, 100%)" y="-15" height="179.999997" fill-opacity="1"/><rect x="-15" width="180" fill="rgb(100%, 100%, 100%)" y="-15" height="179.999997" fill-opacity="1"/><rect x="-15" width="180" fill="rgb(100%, 100%, 100%)" y="-15" height="179.999997" fill-opacity="1"/><g clip-path="url(#id1)"><path fill="rgb(96.859741%, 31.369019%, 13.729858%)" d="M 119.429688 22.667969 L 114.496094 22.667969 L 114.496094 20.253906 C 114.496094 18.863281 113.363281 17.734375 111.976562 17.734375 L 8.402344 17.734375 C 6.988281 17.734375 5.882812 18.863281 5.882812 20.253906 L 5.882812 84.328125 C 5.882812 85.71875 7.015625 86.847656 8.402344 86.847656 L 65.125 86.847656 L 65.125 106.597656 L 54.222656 106.597656 L 50.523438 121.40625 L 65.125 121.40625 L 65.125 126.34375 L 37.972656 126.34375 C 36.585938 126.34375 35.503906 125.238281 35.503906 123.875 C 35.503906 122.5625 36.609375 121.40625 38 121.40625 L 44.402344 121.40625 C 44.96875 121.40625 45.480469 120.96875 45.609375 120.453125 L 49.082031 106.597656 L 8.402344 106.597656 C 4.289062 106.597656 0.949219 103.253906 0.949219 99.214844 L 0.949219 20.175781 C 0.949219 16.085938 4.238281 12.796875 8.402344 12.796875 L 111.976562 12.796875 C 116.089844 12.796875 119.429688 16.136719 119.429688 20.175781 Z M 60.191406 101.660156 C 62.914062 101.660156 65.125 99.449219 65.125 96.722656 C 65.125 93.996094 62.914062 91.785156 60.191406 91.785156 C 57.464844 91.785156 55.253906 93.996094 55.253906 96.722656 C 55.253906 99.449219 57.464844 101.660156 60.191406 101.660156 Z M 60.191406 101.660156 " fill-opacity="1" fill-rule="evenodd"/></g><path fill="rgb(96.859741%, 31.369019%, 13.729858%)" d="M 139.179688 47.355469 L 134.242188 47.355469 L 134.242188 37.480469 L 75 37.480469 L 75 116.46875 L 94.746094 116.46875 L 94.746094 131.28125 L 77.492188 131.28125 C 73.378906 131.28125 70.0625 127.988281 70.0625 123.847656 L 70.0625 35.039062 C 70.0625 30.921875 73.355469 27.605469 77.492188 27.605469 L 131.746094 27.605469 C 135.863281 27.605469 139.179688 30.898438 139.179688 35.039062 Z M 139.179688 47.355469 " fill-opacity="1" fill-rule="evenodd"/><g clip-path="url(#id2)"><path fill="rgb(96.859741%, 31.369019%, 13.729858%)" d="M 107.113281 52.289062 L 141.621094 52.289062 C 145.734375 52.289062 149.050781 55.582031 149.050781 59.722656 L 149.050781 128.785156 C 149.050781 132.898438 145.761719 136.214844 141.621094 136.214844 L 107.113281 136.214844 C 103 136.214844 99.683594 132.925781 99.683594 128.785156 L 99.683594 59.722656 C 99.683594 55.609375 102.976562 52.289062 107.113281 52.289062 Z M 104.621094 116.46875 L 144.117188 116.46875 L 144.117188 62.164062 L 104.621094 62.164062 Z M 124.367188 131.28125 C 127.09375 131.28125 129.304688 129.070312 129.304688 126.34375 C 129.304688 123.617188 127.09375 121.40625 124.367188 121.40625 C 121.644531 121.40625 119.429688 123.617188 119.429688 126.34375 C 119.429688 129.070312 121.644531 131.28125 124.367188 131.28125 Z M 124.367188 131.28125 " fill-opacity="1" fill-rule="evenodd"/></g></svg>