<svg xmlns="http://www.w3.org/2000/svg" xmlns:xlink="http://www.w3.org/1999/xlink" width="200" zoomAndPan="magnify" viewBox="0 0 150 149.999998" height="200" preserveAspectRatio="xMidYMid meet" version="1.0"><defs><clipPath id="id1"><path d="M 4.398438 37 L 145.398438 37 L 145.398438 145.398438 L 4.398438 145.398438 Z M 4.398438 37 " clip-rule="nonzero"/></clipPath><clipPath id="id2"><path d="M 112 4.398438 L 136 4.398438 L 136 115 L 112 115 Z M 112 4.398438 " clip-rule="nonzero"/></clipPath><clipPath id="id3"><path d="M 67 4.398438 L 73 4.398438 L 73 10 L 67 10 Z M 67 4.398438 " clip-rule="nonzero"/></clipPath></defs><rect x="-15" width="180" fill="rgb(100%, 100%, 100%)" y="-15" height="179.999997" fill-opacity="1"/><rect x="-15" width="180" fill="rgb(100%, 100%, 100%)" y="-15" height="179.999997" fill-opacity="1"/><rect x="-15" width="180" fill="rgb(100%, 100%, 100%)" y="-15" height="179.999997" fill-opacity="1"/><path fill="rgb(96.859741%, 31.369019%, 13.729858%)" d="M 93.699219 65.5 L 105.449219 65.5 C 106.742188 65.5 107.796875 64.441406 107.796875 63.148438 C 107.796875 61.855469 106.742188 60.796875 105.449219 60.796875 L 93.699219 60.796875 C 92.402344 60.796875 91.347656 61.855469 91.347656 63.148438 C 91.347656 64.441406 92.402344 65.5 93.699219 65.5 " fill-opacity="1" fill-rule="nonzero"/><g clip-path="url(#id1)"><path fill="rgb(96.859741%, 31.369019%, 13.729858%)" d="M 9.097656 53.75 C 9.097656 47.269531 14.367188 42 20.847656 42 C 27.328125 42 32.597656 47.269531 32.597656 53.75 L 32.597656 117.445312 C 29.605469 114.398438 25.449219 112.5 20.847656 112.5 C 16.25 112.5 12.082031 114.398438 9.097656 117.445312 Z M 143.046875 60.796875 C 141.753906 60.796875 140.699219 61.855469 140.699219 63.148438 L 140.699219 140.699219 L 20.847656 140.699219 C 14.367188 140.699219 9.097656 135.429688 9.097656 128.949219 C 9.097656 122.46875 14.367188 117.199219 20.847656 117.199219 C 27.328125 117.199219 32.597656 122.46875 32.597656 128.949219 C 32.597656 130.242188 33.652344 131.296875 34.949219 131.296875 C 36.242188 131.296875 37.296875 130.242188 37.296875 128.949219 L 37.296875 65.5 L 44.347656 65.5 C 45.644531 65.5 46.699219 64.441406 46.699219 63.148438 C 46.699219 61.855469 45.644531 60.796875 44.347656 60.796875 L 37.296875 60.796875 L 37.296875 53.75 C 37.296875 44.679688 29.917969 37.296875 20.847656 37.296875 C 11.777344 37.296875 4.398438 44.679688 4.398438 53.75 L 4.398438 128.949219 C 4.398438 138.019531 11.777344 145.398438 20.847656 145.398438 L 143.046875 145.398438 C 144.34375 145.398438 145.398438 144.34375 145.398438 143.046875 L 145.398438 63.148438 C 145.398438 61.855469 144.34375 60.796875 143.046875 60.796875 " fill-opacity="1" fill-rule="nonzero"/></g><g clip-path="url(#id2)"><path fill="rgb(96.859741%, 31.369019%, 13.729858%)" d="M 117.199219 16.148438 C 117.199219 12.257812 120.355469 9.097656 124.25 9.097656 C 128.140625 9.097656 131.296875 12.257812 131.296875 16.148438 L 131.296875 18.5 L 117.199219 18.5 Z M 117.199219 27.898438 L 117.199219 23.199219 L 131.296875 23.199219 L 131.296875 27.898438 Z M 121.898438 86.648438 L 117.199219 86.648438 L 117.199219 32.597656 L 121.898438 32.597656 Z M 128.296875 96.046875 L 120.199219 96.046875 L 118.320312 91.347656 L 130.179688 91.347656 Z M 122.082031 100.75 L 126.414062 100.75 L 124.25 106.171875 Z M 112.664062 89.871094 L 116.417969 99.261719 C 116.425781 99.269531 116.425781 99.269531 116.425781 99.269531 L 122.0625 113.371094 C 122.421875 114.261719 123.285156 114.847656 124.25 114.847656 C 125.210938 114.847656 126.074219 114.261719 126.433594 113.371094 L 132.070312 99.269531 C 132.070312 99.269531 132.070312 99.269531 132.078125 99.261719 L 135.832031 89.871094 C 135.933594 89.621094 135.972656 89.355469 135.980469 89.089844 C 135.980469 89.054688 136 89.035156 136 89 L 136 49.046875 C 136 47.753906 134.941406 46.699219 133.648438 46.699219 C 132.355469 46.699219 131.296875 47.753906 131.296875 49.046875 L 131.296875 86.648438 L 126.597656 86.648438 L 126.597656 32.597656 L 131.296875 32.597656 L 131.296875 39.648438 C 131.296875 40.941406 132.355469 42 133.648438 42 C 134.941406 42 136 40.941406 136 39.648438 L 136 16.148438 C 136 9.667969 130.730469 4.398438 124.25 4.398438 C 117.769531 4.398438 112.5 9.667969 112.5 16.148438 L 112.5 89 C 112.5 89.035156 112.515625 89.054688 112.515625 89.089844 C 112.527344 89.355469 112.5625 89.621094 112.664062 89.871094 " fill-opacity="1" fill-rule="nonzero"/></g><path fill="rgb(96.859741%, 31.369019%, 13.729858%)" d="M 65.5 56.097656 L 81.949219 56.097656 C 83.242188 56.097656 84.296875 57.152344 84.296875 58.449219 C 84.296875 59.742188 83.242188 60.796875 81.949219 60.796875 L 58.449219 60.796875 C 57.152344 60.796875 56.097656 59.742188 56.097656 58.449219 C 56.097656 57.152344 57.152344 56.097656 58.449219 56.097656 Z M 65.894531 35.984375 L 69.453125 37.179688 C 69.941406 37.335938 70.457031 37.335938 70.941406 37.179688 L 74.503906 35.984375 L 72.796875 51.398438 L 67.601562 51.398438 Z M 70.199219 74.898438 C 65.011719 74.898438 60.796875 70.683594 60.796875 65.5 L 79.597656 65.5 C 79.597656 70.683594 75.386719 74.898438 70.199219 74.898438 Z M 56.097656 50.699219 L 56.097656 51.828125 C 53.371094 52.804688 51.398438 55.390625 51.398438 58.449219 C 51.398438 61.503906 53.371094 64.09375 56.097656 65.066406 L 56.097656 65.5 C 56.097656 71.742188 60.183594 77.046875 65.820312 78.890625 C 63.332031 81.40625 60.191406 83.207031 56.703125 84.078125 L 53.125 84.96875 C 47.957031 86.261719 44.347656 90.878906 44.347656 96.214844 C 44.347656 102.601562 49.542969 107.796875 55.933594 107.796875 L 60.796875 107.796875 C 62.09375 107.796875 63.148438 106.742188 63.148438 105.449219 C 63.148438 104.152344 62.09375 103.097656 60.796875 103.097656 L 55.933594 103.097656 C 52.140625 103.097656 49.046875 100.003906 49.046875 96.214844 C 49.046875 93.046875 51.195312 90.292969 54.261719 89.53125 L 57.851562 88.632812 C 63.324219 87.261719 68.085938 84.042969 71.429688 79.535156 C 78.632812 78.910156 84.296875 72.859375 84.296875 65.5 L 84.296875 65.066406 C 87.023438 64.09375 89 61.503906 89 58.449219 C 89 55.390625 87.023438 52.804688 84.296875 51.828125 L 84.296875 50.699219 C 88.789062 46.679688 91.347656 41.007812 91.347656 34.949219 C 91.347656 31.195312 90.328125 27.484375 88.402344 24.21875 C 87.75 23.097656 86.308594 22.730469 85.1875 23.390625 C 84.070312 24.050781 83.691406 25.492188 84.355469 26.605469 C 85.859375 29.148438 86.648438 32.03125 86.648438 34.949219 C 86.648438 39.953125 84.398438 44.632812 80.480469 47.78125 C 79.917969 48.222656 79.597656 48.902344 79.597656 49.609375 L 79.597656 51.398438 L 77.523438 51.398438 L 79.582031 32.855469 C 79.671875 32.066406 79.351562 31.277344 78.726562 30.773438 C 78.101562 30.265625 77.265625 30.121094 76.503906 30.367188 L 70.199219 32.46875 L 63.890625 30.367188 C 63.128906 30.121094 62.292969 30.265625 61.671875 30.773438 C 61.046875 31.277344 60.726562 32.066406 60.816406 32.855469 L 62.875 51.398438 L 60.796875 51.398438 L 60.796875 49.609375 C 60.796875 48.902344 60.476562 48.222656 59.917969 47.78125 C 55.996094 44.632812 53.75 39.953125 53.75 34.949219 C 53.75 25.878906 61.128906 18.5 70.199219 18.5 C 73.117188 18.5 76 19.289062 78.535156 20.792969 C 79.664062 21.453125 81.105469 21.078125 81.753906 19.957031 C 82.417969 18.847656 82.050781 17.398438 80.929688 16.746094 C 77.660156 14.816406 73.953125 13.796875 70.199219 13.796875 C 58.539062 13.796875 49.046875 23.289062 49.046875 34.949219 C 49.046875 41.007812 51.601562 46.679688 56.097656 50.699219 " fill-opacity="1" fill-rule="nonzero"/><path fill="rgb(96.859741%, 31.369019%, 13.729858%)" d="M 42 37.296875 C 43.292969 37.296875 44.347656 36.242188 44.347656 34.949219 C 44.347656 33.652344 43.292969 32.597656 42 32.597656 C 40.703125 32.597656 39.648438 33.652344 39.648438 34.949219 C 39.648438 36.242188 40.703125 37.296875 42 37.296875 " fill-opacity="1" fill-rule="nonzero"/><path fill="rgb(96.859741%, 31.369019%, 13.729858%)" d="M 96.046875 34.949219 C 96.046875 36.242188 97.105469 37.296875 98.398438 37.296875 C 99.691406 37.296875 100.75 36.242188 100.75 34.949219 C 100.75 33.652344 99.691406 32.597656 98.398438 32.597656 C 97.105469 32.597656 96.046875 33.652344 96.046875 34.949219 " fill-opacity="1" fill-rule="nonzero"/><g clip-path="url(#id3)"><path fill="rgb(96.859741%, 31.369019%, 13.729858%)" d="M 70.199219 9.097656 C 71.492188 9.097656 72.546875 8.042969 72.546875 6.75 C 72.546875 5.453125 71.492188 4.398438 70.199219 4.398438 C 68.902344 4.398438 67.847656 5.453125 67.847656 6.75 C 67.847656 8.042969 68.902344 9.097656 70.199219 9.097656 " fill-opacity="1" fill-rule="nonzero"/></g><path fill="rgb(96.859741%, 31.369019%, 13.729858%)" d="M 44.597656 22.886719 C 45.726562 23.527344 47.167969 23.144531 47.808594 22.023438 C 48.460938 20.902344 48.074219 19.460938 46.945312 18.8125 C 45.828125 18.167969 44.394531 18.554688 43.742188 19.671875 C 43.089844 20.792969 43.476562 22.234375 44.597656 22.886719 " fill-opacity="1" fill-rule="nonzero"/><path fill="rgb(96.859741%, 31.369019%, 13.729858%)" d="M 93.449219 51.085938 C 94.570312 51.730469 96.003906 51.34375 96.65625 50.222656 C 97.304688 49.105469 96.921875 47.664062 95.800781 47.011719 C 94.671875 46.367188 93.230469 46.753906 92.585938 47.875 C 91.9375 48.992188 92.320312 50.433594 93.449219 51.085938 " fill-opacity="1" fill-rule="nonzero"/><path fill="rgb(96.859741%, 31.369019%, 13.729858%)" d="M 83.125 12.558594 C 84.242188 13.210938 85.683594 12.824219 86.335938 11.695312 C 86.988281 10.578125 86.59375 9.144531 85.472656 8.492188 C 84.355469 7.839844 82.914062 8.226562 82.261719 9.347656 C 81.609375 10.476562 82.003906 11.917969 83.125 12.558594 " fill-opacity="1" fill-rule="nonzero"/><path fill="rgb(96.859741%, 31.369019%, 13.729858%)" d="M 95.800781 22.886719 C 96.921875 22.234375 97.304688 20.792969 96.65625 19.671875 C 96.003906 18.554688 94.570312 18.167969 93.449219 18.8125 C 92.320312 19.460938 91.9375 20.902344 92.585938 22.023438 C 93.230469 23.144531 94.671875 23.527344 95.800781 22.886719 " fill-opacity="1" fill-rule="nonzero"/><path fill="rgb(96.859741%, 31.369019%, 13.729858%)" d="M 47.808594 47.875 C 47.167969 46.753906 45.726562 46.367188 44.597656 47.011719 C 43.476562 47.664062 43.089844 49.105469 43.742188 50.222656 C 44.394531 51.34375 45.828125 51.730469 46.945312 51.085938 C 48.074219 50.433594 48.460938 48.992188 47.808594 47.875 " fill-opacity="1" fill-rule="nonzero"/><path fill="rgb(96.859741%, 31.369019%, 13.729858%)" d="M 57.273438 12.558594 C 58.394531 11.917969 58.777344 10.476562 58.136719 9.347656 C 57.484375 8.226562 56.042969 7.839844 54.921875 8.492188 C 53.804688 9.144531 53.417969 10.578125 54.0625 11.695312 C 54.710938 12.824219 56.152344 13.210938 57.273438 12.558594 " fill-opacity="1" fill-rule="nonzero"/><path fill="rgb(96.859741%, 31.369019%, 13.729858%)" d="M 81.949219 126.597656 L 91.347656 126.597656 C 92.644531 126.597656 93.699219 125.542969 93.699219 124.25 L 93.699219 120.300781 C 94.496094 119.925781 95.257812 119.484375 95.984375 118.980469 L 99.398438 120.953125 C 100.527344 121.605469 101.96875 121.21875 102.613281 120.089844 L 107.3125 111.957031 C 107.964844 110.828125 107.578125 109.394531 106.449219 108.742188 L 103.042969 106.769531 C 103.082031 106.328125 103.097656 105.890625 103.097656 105.449219 C 103.097656 105.007812 103.082031 104.566406 103.042969 104.125 L 106.449219 102.152344 C 107.578125 101.5 107.964844 100.070312 107.3125 98.941406 L 102.613281 90.808594 C 101.96875 89.679688 100.527344 89.292969 99.398438 89.945312 L 95.984375 91.917969 C 95.257812 91.414062 94.496094 90.972656 93.699219 90.597656 L 93.699219 86.648438 C 93.699219 85.355469 92.644531 84.296875 91.347656 84.296875 L 81.949219 84.296875 C 80.652344 84.296875 79.597656 85.355469 79.597656 86.648438 L 79.597656 90.597656 C 78.800781 90.972656 78.039062 91.414062 77.3125 91.917969 L 73.890625 89.945312 C 72.769531 89.292969 71.328125 89.679688 70.683594 90.808594 L 65.984375 98.941406 C 65.332031 100.070312 65.71875 101.5 66.839844 102.152344 L 70.253906 104.125 C 70.21875 104.566406 70.199219 105.007812 70.199219 105.449219 C 70.199219 105.890625 70.21875 106.328125 70.253906 106.769531 L 66.839844 108.742188 C 65.71875 109.394531 65.332031 110.828125 65.984375 111.957031 C 66.628906 113.078125 68.070312 113.460938 69.1875 112.8125 L 73.972656 110.058594 C 74.835938 109.5625 75.285156 108.570312 75.109375 107.597656 C 74.960938 106.84375 74.898438 106.136719 74.898438 105.449219 C 74.898438 104.761719 74.960938 104.054688 75.109375 103.300781 C 75.285156 102.328125 74.835938 101.335938 73.972656 100.839844 L 71.226562 99.261719 L 73.578125 95.1875 L 76.320312 96.773438 C 77.183594 97.269531 78.257812 97.167969 79.019531 96.527344 C 80.113281 95.589844 81.359375 94.863281 82.738281 94.378906 C 83.675781 94.046875 84.296875 93.167969 84.296875 92.164062 L 84.296875 89 L 89 89 L 89 92.164062 C 89 93.167969 89.621094 94.046875 90.558594 94.378906 C 91.9375 94.863281 93.183594 95.589844 94.277344 96.527344 C 95.039062 97.167969 96.121094 97.269531 96.976562 96.773438 L 99.71875 95.1875 L 102.070312 99.261719 L 99.324219 100.839844 C 98.472656 101.335938 98.011719 102.328125 98.1875 103.300781 C 98.335938 104.054688 98.398438 104.761719 98.398438 105.449219 C 98.398438 106.136719 98.335938 106.84375 98.1875 107.597656 C 98.011719 108.570312 98.472656 109.5625 99.324219 110.058594 L 102.070312 111.636719 L 99.71875 115.710938 L 96.976562 114.125 C 96.121094 113.628906 95.039062 113.730469 94.277344 114.371094 C 93.183594 115.308594 91.9375 116.03125 90.558594 116.519531 C 89.621094 116.851562 89 117.730469 89 118.730469 L 89 121.898438 L 84.296875 121.898438 L 84.296875 118.730469 C 84.296875 117.730469 83.675781 116.851562 82.738281 116.519531 C 81.359375 116.03125 80.113281 115.308594 79.019531 114.371094 C 78.257812 113.730469 77.183594 113.628906 76.320312 114.125 L 71.539062 116.886719 C 70.417969 117.527344 70.035156 118.96875 70.683594 120.089844 C 71.328125 121.21875 72.769531 121.605469 73.890625 120.953125 L 77.3125 118.980469 C 78.039062 119.484375 78.800781 119.925781 79.597656 120.300781 L 79.597656 124.25 C 79.597656 125.542969 80.652344 126.597656 81.949219 126.597656 " fill-opacity="1" fill-rule="nonzero"/><path fill="rgb(96.859741%, 31.369019%, 13.729858%)" d="M 84.296875 105.449219 C 84.296875 104.152344 85.355469 103.097656 86.648438 103.097656 C 87.941406 103.097656 89 104.152344 89 105.449219 C 89 106.742188 87.941406 107.796875 86.648438 107.796875 C 85.355469 107.796875 84.296875 106.742188 84.296875 105.449219 Z M 93.699219 105.449219 C 93.699219 101.554688 90.539062 98.398438 86.648438 98.398438 C 82.757812 98.398438 79.597656 101.554688 79.597656 105.449219 C 79.597656 109.339844 82.757812 112.5 86.648438 112.5 C 90.539062 112.5 93.699219 109.339844 93.699219 105.449219 " fill-opacity="1" fill-rule="nonzero"/><path fill="rgb(96.859741%, 31.369019%, 13.729858%)" d="M 89 136 L 117.199219 136 C 122.386719 136 126.597656 131.785156 126.597656 126.597656 L 126.597656 121.898438 C 126.597656 120.605469 125.542969 119.546875 124.25 119.546875 C 122.953125 119.546875 121.898438 120.605469 121.898438 121.898438 L 121.898438 126.597656 C 121.898438 129.1875 119.789062 131.296875 117.199219 131.296875 L 89 131.296875 C 87.703125 131.296875 86.648438 132.355469 86.648438 133.648438 C 86.648438 134.941406 87.703125 136 89 136 " fill-opacity="1" fill-rule="nonzero"/><path fill="rgb(96.859741%, 31.369019%, 13.729858%)" d="M 56.097656 126.597656 C 56.097656 127.894531 55.042969 128.949219 53.75 128.949219 C 52.453125 128.949219 51.398438 127.894531 51.398438 126.597656 C 51.398438 125.304688 52.453125 124.25 53.75 124.25 C 55.042969 124.25 56.097656 125.304688 56.097656 126.597656 Z M 46.699219 126.597656 C 46.699219 130.492188 49.855469 133.648438 53.75 133.648438 C 57.640625 133.648438 60.796875 130.492188 60.796875 126.597656 C 60.796875 122.707031 57.640625 119.546875 53.75 119.546875 C 49.855469 119.546875 46.699219 122.707031 46.699219 126.597656 " fill-opacity="1" fill-rule="nonzero"/></svg>