<svg xmlns="http://www.w3.org/2000/svg" xmlns:xlink="http://www.w3.org/1999/xlink" width="200" zoomAndPan="magnify" viewBox="0 0 150 149.999998" height="200" preserveAspectRatio="xMidYMid meet" version="1.0"><defs><clipPath id="id1"><path d="M 38 96 L 112 96 L 112 148.03125 L 38 148.03125 Z M 38 96 " clip-rule="nonzero"/></clipPath><clipPath id="id2"><path d="M 53 1.78125 L 97 1.78125 L 97 43 L 53 43 Z M 53 1.78125 " clip-rule="nonzero"/></clipPath></defs><rect x="-15" width="180" fill="rgb(100%, 100%, 100%)" y="-15" height="179.999997" fill-opacity="1"/><rect x="-15" width="180" fill="rgb(100%, 100%, 100%)" y="-15" height="179.999997" fill-opacity="1"/><rect x="-15" width="180" fill="rgb(100%, 100%, 100%)" y="-15" height="179.999997" fill-opacity="1"/><path fill="rgb(96.859741%, 31.369019%, 13.729858%)" d="M 93.25 67.882812 C 93.246094 68.457031 93.238281 69.019531 93.238281 69.5625 C 93.238281 74.191406 91.4375 79.03125 87.886719 83.941406 C 84.171875 89.078125 80.867188 92.046875 74.957031 92.046875 C 69.050781 92.046875 65.746094 89.078125 62.03125 83.941406 C 58.476562 79.03125 56.675781 74.191406 56.675781 69.5625 C 56.675781 69.019531 56.671875 68.457031 56.667969 67.882812 C 56.628906 64.132812 56.585938 59.882812 58.042969 56.980469 C 61.261719 50.59375 67.269531 47.074219 74.957031 47.074219 C 82.644531 47.074219 88.652344 50.59375 91.867188 56.980469 C 93.328125 59.882812 93.285156 64.132812 93.25 67.882812 " fill-opacity="1" fill-rule="nonzero"/><g clip-path="url(#id1)"><path fill="rgb(96.859741%, 31.369019%, 13.729858%)" d="M 105.804688 148.085938 C 109.019531 148.085938 111.550781 145.339844 111.273438 142.140625 C 110.4375 132.476562 107.710938 114.054688 105.71875 105.78125 C 104.839844 102.125 102.09375 99.195312 98.484375 98.136719 C 98.191406 98.046875 93.265625 96.875 93.265625 96.875 C 91.667969 96.476562 89.988281 97.289062 89.316406 98.808594 L 82.246094 114.320312 L 82.574219 121.410156 C 82.574219 121.695312 77.480469 138.511719 77.480469 138.511719 C 77.128906 139.636719 76.117188 140.378906 74.957031 140.378906 L 74.945312 140.378906 C 73.78125 140.371094 72.777344 139.625 72.441406 138.511719 C 72.441406 138.511719 67.335938 121.625 67.335938 121.40625 L 67.671875 114.253906 L 60.632812 98.808594 C 59.910156 97.289062 58.261719 96.476562 56.648438 96.875 C 56.648438 96.875 51.769531 98.042969 51.480469 98.125 C 47.859375 99.171875 45.109375 102.113281 44.226562 105.765625 C 42.230469 114.03125 39.488281 132.449219 38.652344 142.125 C 38.375 145.320312 40.902344 148.070312 44.117188 148.070312 L 105.804688 148.085938 " fill-opacity="1" fill-rule="nonzero"/></g><path fill="rgb(96.859741%, 31.369019%, 13.729858%)" d="M 80.632812 100.050781 L 80.632812 104.832031 C 80.632812 105.65625 80.320312 106.417969 79.816406 106.996094 C 79.210938 107.679688 78.332031 108.109375 77.351562 108.109375 L 72.566406 108.109375 C 71.582031 108.109375 70.703125 107.679688 70.101562 106.996094 C 69.59375 106.417969 69.285156 105.65625 69.285156 104.832031 L 69.285156 100.050781 C 69.285156 98.253906 70.757812 96.777344 72.566406 96.777344 L 77.351562 96.777344 C 79.15625 96.777344 80.632812 98.253906 80.632812 100.050781 " fill-opacity="1" fill-rule="nonzero"/><path fill="rgb(96.859741%, 31.369019%, 13.729858%)" d="M 80.527344 121.410156 C 80.527344 121.476562 75.523438 137.914062 75.523438 137.914062 C 75.351562 138.472656 74.566406 138.472656 74.394531 137.914062 C 74.394531 137.914062 69.382812 121.476562 69.382812 121.40625 L 69.871094 110.976562 C 69.890625 110.578125 70.285156 110.324219 70.65625 110.457031 C 71.253906 110.65625 71.898438 110.765625 72.566406 110.765625 L 77.351562 110.765625 C 78.019531 110.765625 78.664062 110.65625 79.257812 110.457031 C 79.628906 110.324219 80.023438 110.578125 80.042969 110.976562 L 80.527344 121.410156 " fill-opacity="1" fill-rule="nonzero"/><path fill="rgb(96.859741%, 31.369019%, 13.729858%)" d="M 34.402344 40.359375 C 34.359375 40.402344 34.339844 40.464844 34.347656 40.53125 L 36.109375 50.789062 C 36.335938 52.117188 35.800781 53.433594 34.710938 54.222656 C 33.621094 55.015625 32.203125 55.117188 31.011719 54.488281 L 21.789062 49.648438 C 21.730469 49.617188 21.660156 49.617188 21.601562 49.648438 L 12.378906 54.488281 C 11.859375 54.761719 11.296875 54.898438 10.738281 54.898438 C 10.011719 54.898438 9.296875 54.671875 8.679688 54.222656 C 7.585938 53.433594 7.050781 52.117188 7.28125 50.789062 L 9.042969 40.53125 C 9.050781 40.464844 9.03125 40.402344 8.984375 40.359375 L 1.523438 33.09375 C 0.554688 32.152344 0.21875 30.777344 0.632812 29.496094 C 1.050781 28.214844 2.136719 27.296875 3.46875 27.105469 L 13.785156 25.609375 C 13.847656 25.601562 13.902344 25.5625 13.933594 25.503906 L 18.542969 16.167969 C 19.140625 14.960938 20.347656 14.210938 21.695312 14.210938 C 23.042969 14.210938 24.25 14.960938 24.847656 16.167969 L 29.265625 25.113281 L 26.835938 27.539062 C 26.699219 27.359375 26.585938 27.167969 26.484375 26.96875 L 21.871094 17.636719 C 21.851562 17.601562 21.816406 17.527344 21.695312 17.527344 C 21.574219 17.527344 21.535156 17.601562 21.519531 17.636719 L 16.90625 26.96875 C 16.394531 28.003906 15.40625 28.722656 14.257812 28.890625 L 3.945312 30.386719 C 3.914062 30.390625 3.828125 30.402344 3.789062 30.519531 C 3.75 30.636719 3.8125 30.695312 3.835938 30.71875 L 11.300781 37.984375 C 12.128906 38.789062 12.507812 39.953125 12.3125 41.09375 L 10.546875 51.351562 C 10.546875 51.386719 10.527344 51.46875 10.628906 51.542969 C 10.726562 51.613281 10.804688 51.574219 10.835938 51.554688 L 20.058594 46.714844 C 21.082031 46.175781 22.304688 46.175781 23.332031 46.714844 L 32.554688 51.554688 C 32.585938 51.574219 32.664062 51.613281 32.761719 51.542969 C 32.859375 51.46875 32.84375 51.386719 32.839844 51.351562 L 31.078125 41.09375 C 30.882812 39.953125 31.261719 38.789062 32.089844 37.984375 L 39.550781 30.71875 C 39.574219 30.695312 39.636719 30.636719 39.601562 30.519531 C 39.5625 30.402344 39.480469 30.390625 39.445312 30.386719 L 36.347656 29.9375 L 39.273438 27.015625 L 39.917969 27.105469 C 41.253906 27.296875 42.339844 28.214844 42.757812 29.496094 C 43.175781 30.777344 42.832031 32.152344 41.867188 33.09375 L 34.402344 40.359375 " fill-opacity="1" fill-rule="nonzero"/><path fill="rgb(96.859741%, 31.369019%, 13.729858%)" d="M 41.011719 22.78125 L 21.703125 42.0625 L 13.507812 33.875 L 16.960938 30.425781 L 21.703125 35.167969 L 37.554688 19.332031 L 41.011719 22.78125 " fill-opacity="1" fill-rule="nonzero"/><g clip-path="url(#id2)"><path fill="rgb(96.859741%, 31.369019%, 13.729858%)" d="M 87.667969 27.957031 C 87.621094 28.003906 87.601562 28.066406 87.609375 28.128906 L 89.371094 38.390625 C 89.601562 39.71875 89.066406 41.03125 87.972656 41.824219 C 86.882812 42.613281 85.464844 42.71875 84.273438 42.089844 L 75.050781 37.25 C 74.992188 37.214844 74.925781 37.214844 74.863281 37.25 L 65.640625 42.089844 C 65.125 42.359375 64.5625 42.496094 64.003906 42.496094 C 63.277344 42.496094 62.554688 42.269531 61.941406 41.824219 C 60.851562 41.03125 60.316406 39.71875 60.542969 38.390625 L 62.304688 28.128906 C 62.3125 28.066406 62.292969 28.003906 62.25 27.957031 L 54.785156 20.691406 C 53.820312 19.753906 53.476562 18.375 53.898438 17.09375 C 54.3125 15.8125 55.402344 14.898438 56.734375 14.703125 L 67.046875 13.210938 C 67.109375 13.199219 67.164062 13.160156 67.191406 13.101562 L 71.804688 3.769531 C 72.402344 2.5625 73.609375 1.8125 74.957031 1.8125 C 76.304688 1.8125 77.511719 2.5625 78.109375 3.769531 L 82.527344 12.710938 L 80.101562 15.140625 C 79.964844 14.960938 79.84375 14.769531 79.746094 14.570312 L 75.136719 5.234375 C 75.117188 5.203125 75.078125 5.125 74.957031 5.125 C 74.835938 5.125 74.800781 5.203125 74.777344 5.234375 L 70.167969 14.570312 C 69.65625 15.605469 68.667969 16.320312 67.523438 16.488281 L 57.207031 17.984375 C 57.175781 17.992188 57.089844 18 57.054688 18.121094 C 57.015625 18.234375 57.074219 18.292969 57.101562 18.320312 L 64.566406 25.585938 C 65.390625 26.390625 65.769531 27.550781 65.574219 28.691406 L 63.8125 38.949219 C 63.804688 38.984375 63.792969 39.070312 63.890625 39.144531 C 63.988281 39.210938 64.066406 39.171875 64.097656 39.15625 L 73.320312 34.3125 C 74.347656 33.777344 75.570312 33.777344 76.59375 34.3125 L 85.816406 39.15625 C 85.847656 39.171875 85.925781 39.210938 86.023438 39.144531 C 86.125 39.070312 86.109375 38.984375 86.105469 38.949219 L 84.34375 28.691406 C 84.144531 27.550781 84.523438 26.390625 85.351562 25.585938 L 92.8125 18.320312 C 92.84375 18.292969 92.902344 18.234375 92.863281 18.121094 C 92.824219 18 92.738281 17.992188 92.707031 17.984375 L 89.609375 17.535156 L 92.539062 14.613281 L 93.183594 14.703125 C 94.515625 14.898438 95.601562 15.8125 96.019531 17.09375 C 96.4375 18.375 96.09375 19.753906 95.132812 20.691406 L 87.667969 27.957031 " fill-opacity="1" fill-rule="nonzero"/></g><path fill="rgb(96.859741%, 31.369019%, 13.729858%)" d="M 94.273438 10.378906 L 74.96875 29.660156 L 66.769531 21.476562 L 70.222656 18.027344 L 74.96875 22.761719 L 90.820312 6.933594 L 94.273438 10.378906 " fill-opacity="1" fill-rule="nonzero"/><path fill="rgb(96.859741%, 31.369019%, 13.729858%)" d="M 140.929688 40.359375 C 140.882812 40.402344 140.863281 40.464844 140.875 40.53125 L 142.636719 50.789062 C 142.863281 52.117188 142.328125 53.433594 141.238281 54.222656 C 140.148438 55.015625 138.730469 55.117188 137.535156 54.488281 L 128.308594 49.648438 C 128.253906 49.617188 128.1875 49.617188 128.128906 49.648438 L 118.90625 54.488281 C 118.386719 54.761719 117.824219 54.898438 117.265625 54.898438 C 116.539062 54.898438 115.820312 54.671875 115.203125 54.222656 C 114.113281 53.433594 113.578125 52.117188 113.804688 50.789062 L 115.566406 40.53125 C 115.578125 40.464844 115.558594 40.402344 115.511719 40.359375 L 108.046875 33.09375 C 107.085938 32.152344 106.742188 30.777344 107.15625 29.496094 C 107.574219 28.214844 108.660156 27.296875 109.996094 27.105469 L 120.308594 25.609375 C 120.371094 25.601562 120.429688 25.5625 120.453125 25.503906 L 125.066406 16.167969 C 125.664062 14.960938 126.871094 14.210938 128.222656 14.210938 C 129.570312 14.210938 130.773438 14.960938 131.375 16.167969 L 135.792969 25.113281 L 133.363281 27.539062 C 133.226562 27.359375 133.109375 27.167969 133.007812 26.96875 L 128.394531 17.636719 C 128.378906 17.601562 128.34375 17.527344 128.222656 17.527344 C 128.097656 17.527344 128.058594 17.601562 128.046875 17.636719 L 123.433594 26.96875 C 122.921875 28.003906 121.933594 28.722656 120.785156 28.890625 L 110.472656 30.386719 C 110.4375 30.390625 110.351562 30.402344 110.3125 30.519531 C 110.277344 30.636719 110.335938 30.695312 110.363281 30.71875 L 117.828125 37.984375 C 118.652344 38.789062 119.035156 39.953125 118.835938 41.09375 L 117.074219 51.351562 C 117.066406 51.386719 117.054688 51.46875 117.152344 51.542969 C 117.253906 51.613281 117.328125 51.574219 117.363281 51.554688 L 126.585938 46.714844 C 127.609375 46.175781 128.832031 46.175781 129.855469 46.714844 L 139.078125 51.554688 C 139.113281 51.574219 139.1875 51.613281 139.289062 51.542969 C 139.386719 51.46875 139.371094 51.386719 139.367188 51.351562 L 137.601562 41.09375 C 137.40625 39.953125 137.789062 38.789062 138.613281 37.984375 L 146.074219 30.71875 C 146.101562 30.695312 146.164062 30.636719 146.128906 30.519531 C 146.089844 30.402344 146.003906 30.390625 145.964844 30.386719 L 142.875 29.9375 L 145.800781 27.015625 L 146.445312 27.105469 C 147.777344 27.296875 148.863281 28.214844 149.28125 29.496094 C 149.699219 30.777344 149.355469 32.152344 148.390625 33.09375 L 140.929688 40.359375 " fill-opacity="1" fill-rule="nonzero"/><path fill="rgb(96.859741%, 31.369019%, 13.729858%)" d="M 147.535156 22.78125 L 128.230469 42.0625 L 120.03125 33.875 L 123.484375 30.425781 L 128.230469 35.167969 L 144.082031 19.332031 L 147.535156 22.78125 " fill-opacity="1" fill-rule="nonzero"/></svg>