<svg xmlns="http://www.w3.org/2000/svg" xmlns:xlink="http://www.w3.org/1999/xlink" width="200" zoomAndPan="magnify" viewBox="0 0 150 149.999998" height="200" preserveAspectRatio="xMidYMid meet" version="1.0"><defs><clipPath id="id1"><path d="M 2.367188 13.078125 L 147.867188 13.078125 L 147.867188 136.828125 L 2.367188 136.828125 Z M 2.367188 13.078125 " clip-rule="nonzero"/></clipPath></defs><rect x="-15" width="180" fill="rgb(100%, 100%, 100%)" y="-15" height="179.999997" fill-opacity="1"/><rect x="-15" width="180" fill="rgb(100%, 100%, 100%)" y="-15" height="179.999997" fill-opacity="1"/><rect x="-15" width="180" fill="rgb(100%, 100%, 100%)" y="-15" height="179.999997" fill-opacity="1"/><path fill="rgb(96.859741%, 31.369019%, 13.729858%)" d="M 32.492188 44.433594 C 32.386719 44.023438 32.558594 43.714844 32.679688 43.5625 C 32.792969 43.421875 33.035156 43.179688 33.46875 43.179688 L 36.320312 43.179688 L 37.167969 47.195312 L 33.179688 47.195312 Z M 34.035156 50.667969 L 37.894531 50.667969 L 38.691406 54.390625 L 34.964844 54.390625 Z M 35.820312 57.878906 L 39.417969 57.878906 L 40.164062 61.390625 L 37.492188 61.390625 C 37.015625 61.390625 36.625 61.074219 36.511719 60.621094 Z M 40.726562 47.210938 L 39.878906 43.1875 L 46.453125 43.1875 L 46.453125 47.210938 Z M 41.453125 50.667969 L 46.453125 50.667969 L 46.453125 54.390625 L 42.238281 54.390625 Z M 42.972656 57.867188 L 46.453125 57.867188 L 46.453125 61.382812 L 43.714844 61.382812 Z M 49.9375 43.1875 L 56.390625 43.1875 L 55.503906 47.210938 L 49.9375 47.210938 Z M 49.9375 50.667969 L 54.75 50.667969 L 53.929688 54.390625 L 49.9375 54.390625 Z M 49.949219 61.382812 L 49.949219 57.867188 L 53.167969 57.867188 L 52.386719 61.382812 L 49.9375 61.382812 Z M 58.632812 61.371094 L 55.945312 61.371094 L 56.722656 57.859375 L 60.378906 57.859375 L 59.59375 60.644531 C 59.480469 61.082031 59.078125 61.382812 58.632812 61.382812 Z M 61.355469 54.390625 L 57.480469 54.390625 L 58.296875 50.667969 L 62.40625 50.667969 Z M 63.382812 47.21875 L 59.054688 47.21875 L 59.941406 43.203125 L 63.195312 43.203125 C 63.625 43.203125 63.882812 43.449219 63.996094 43.59375 C 64.109375 43.746094 64.285156 44.054688 64.164062 44.46875 L 63.382812 47.210938 Z M 57.117188 71.949219 C 58.070312 71.949219 58.828125 72.71875 58.828125 73.65625 C 58.828125 74.589844 58.054688 75.351562 57.117188 75.351562 C 56.179688 75.351562 55.414062 74.589844 55.414062 73.65625 C 55.414062 72.71875 56.179688 71.949219 57.117188 71.949219 Z M 41.269531 71.949219 C 42.214844 71.949219 42.972656 72.71875 42.972656 73.65625 C 42.972656 74.589844 42.207031 75.351562 41.269531 75.351562 C 40.332031 75.351562 39.558594 74.589844 39.558594 73.65625 C 39.558594 72.71875 40.332031 71.949219 41.269531 71.949219 Z M 29.988281 41.367188 C 29.09375 42.46875 28.777344 43.898438 29.125 45.285156 L 33.148438 61.46875 C 33.648438 63.460938 35.441406 64.863281 37.5 64.863281 L 61.667969 64.863281 C 62.695312 64.863281 63.527344 65.710938 63.484375 66.746094 C 63.445312 67.71875 62.605469 68.488281 61.621094 68.488281 L 41.359375 68.488281 C 38.484375 68.488281 36.09375 70.785156 36.09375 73.660156 C 36.09375 76.636719 38.628906 79.023438 41.648438 78.820312 C 44.125 78.636719 46.144531 76.703125 46.433594 74.257812 C 46.515625 73.449219 46.417969 72.664062 46.167969 71.964844 L 52.238281 71.964844 C 52.039062 72.5 51.941406 73.066406 51.941406 73.660156 C 51.941406 76.628906 54.46875 79.023438 57.488281 78.820312 C 60.023438 78.644531 62.089844 76.605469 62.285156 74.078125 C 62.347656 73.328125 62.234375 72.605469 62.007812 71.949219 C 64.769531 71.773438 66.957031 69.472656 66.957031 66.675781 C 66.957031 64.207031 65.246094 62.132812 62.945312 61.550781 L 66.992188 47.226562 L 69.9375 36.851562 L 75.703125 36.851562 C 76.550781 36.851562 77.226562 36.164062 77.226562 35.328125 L 77.226562 35.167969 C 77.226562 34.320312 76.539062 33.640625 75.703125 33.640625 L 69 33.640625 C 68.105469 33.640625 67.3125 34.238281 67.0625 35.105469 L 65.546875 40.394531 C 64.851562 39.960938 64.042969 39.722656 63.195312 39.722656 L 33.535156 39.722656 C 32.171875 39.722656 30.855469 40.308594 29.988281 41.367188 " fill-opacity="1" fill-rule="nonzero"/><path fill="rgb(96.859741%, 31.369019%, 13.729858%)" d="M 116.601562 44.039062 C 116.195312 44.039062 115.859375 43.707031 115.859375 43.300781 C 115.859375 42.882812 116.195312 42.558594 116.601562 42.558594 L 118.828125 42.558594 C 119.234375 42.558594 119.570312 42.882812 119.570312 43.300781 C 119.570312 43.707031 119.234375 44.039062 118.828125 44.039062 L 116.601562 44.039062 " fill-opacity="1" fill-rule="nonzero"/><path fill="rgb(96.859741%, 31.369019%, 13.729858%)" d="M 105.476562 44.039062 C 105.0625 44.039062 104.734375 43.707031 104.734375 43.300781 C 104.734375 42.882812 105.0625 42.558594 105.476562 42.558594 L 113.636719 42.558594 C 114.042969 42.558594 114.378906 42.882812 114.378906 43.300781 C 114.378906 43.707031 114.042969 44.039062 113.636719 44.039062 L 105.476562 44.039062 " fill-opacity="1" fill-rule="nonzero"/><path fill="rgb(96.859741%, 31.369019%, 13.729858%)" d="M 103.253906 47 C 102.84375 47 102.511719 46.667969 102.511719 46.261719 C 102.511719 45.851562 102.84375 45.519531 103.253906 45.519531 L 105.476562 45.519531 C 105.886719 45.519531 106.21875 45.851562 106.21875 46.261719 C 106.21875 46.667969 105.886719 47 105.476562 47 L 103.253906 47 " fill-opacity="1" fill-rule="nonzero"/><path fill="rgb(96.859741%, 31.369019%, 13.729858%)" d="M 108.445312 47 C 108.035156 47 107.703125 46.667969 107.703125 46.261719 C 107.703125 45.851562 108.035156 45.519531 108.445312 45.519531 L 116.601562 45.519531 C 117.011719 45.519531 117.34375 45.851562 117.34375 46.261719 C 117.34375 46.667969 117.011719 47 116.601562 47 L 108.445312 47 " fill-opacity="1" fill-rule="nonzero"/><path fill="rgb(96.859741%, 31.369019%, 13.729858%)" d="M 103.253906 41.078125 C 102.84375 41.078125 102.511719 40.746094 102.511719 40.339844 C 102.511719 39.925781 102.84375 39.601562 103.253906 39.601562 L 105.476562 39.601562 C 105.886719 39.601562 106.21875 39.925781 106.21875 40.339844 C 106.21875 40.746094 105.886719 41.078125 105.476562 41.078125 L 103.253906 41.078125 " fill-opacity="1" fill-rule="nonzero"/><path fill="rgb(96.859741%, 31.369019%, 13.729858%)" d="M 108.445312 41.078125 C 108.035156 41.078125 107.703125 40.746094 107.703125 40.339844 C 107.703125 39.925781 108.035156 39.601562 108.445312 39.601562 L 116.601562 39.601562 C 117.011719 39.601562 117.34375 39.925781 117.34375 40.339844 C 117.34375 40.746094 117.011719 41.078125 116.601562 41.078125 L 108.445312 41.078125 " fill-opacity="1" fill-rule="nonzero"/><path fill="rgb(96.859741%, 31.369019%, 13.729858%)" d="M 89.335938 70.386719 C 88.925781 70.386719 88.59375 70.050781 88.59375 69.644531 C 88.59375 69.230469 88.925781 68.90625 89.335938 68.90625 L 91.566406 68.90625 C 91.976562 68.90625 92.308594 69.230469 92.308594 69.644531 C 92.308594 70.050781 91.976562 70.386719 91.566406 70.386719 L 89.335938 70.386719 " fill-opacity="1" fill-rule="nonzero"/><path fill="rgb(96.859741%, 31.369019%, 13.729858%)" d="M 78.210938 70.386719 C 77.800781 70.386719 77.46875 70.050781 77.46875 69.644531 C 77.46875 69.230469 77.800781 68.90625 78.210938 68.90625 L 86.375 68.90625 C 86.777344 68.90625 87.117188 69.230469 87.117188 69.644531 C 87.117188 70.050781 86.777344 70.386719 86.375 70.386719 L 78.210938 70.386719 " fill-opacity="1" fill-rule="nonzero"/><path fill="rgb(96.859741%, 31.369019%, 13.729858%)" d="M 75.992188 73.34375 C 75.578125 73.34375 75.25 73.011719 75.25 72.605469 C 75.25 72.195312 75.578125 71.863281 75.992188 71.863281 L 78.210938 71.863281 C 78.625 71.863281 78.953125 72.195312 78.953125 72.605469 C 78.953125 73.011719 78.625 73.34375 78.210938 73.34375 L 75.992188 73.34375 " fill-opacity="1" fill-rule="nonzero"/><path fill="rgb(96.859741%, 31.369019%, 13.729858%)" d="M 81.183594 73.34375 C 80.769531 73.34375 80.441406 73.011719 80.441406 72.605469 C 80.441406 72.195312 80.769531 71.863281 81.183594 71.863281 L 89.335938 71.863281 C 89.75 71.863281 90.078125 72.195312 90.078125 72.605469 C 90.078125 73.011719 89.75 73.34375 89.335938 73.34375 L 81.183594 73.34375 " fill-opacity="1" fill-rule="nonzero"/><path fill="rgb(96.859741%, 31.369019%, 13.729858%)" d="M 75.992188 67.425781 C 75.578125 67.425781 75.25 67.09375 75.25 66.683594 C 75.25 66.277344 75.578125 65.945312 75.992188 65.945312 L 78.210938 65.945312 C 78.625 65.945312 78.953125 66.277344 78.953125 66.683594 C 78.953125 67.09375 78.625 67.425781 78.210938 67.425781 L 75.992188 67.425781 " fill-opacity="1" fill-rule="nonzero"/><path fill="rgb(96.859741%, 31.369019%, 13.729858%)" d="M 81.183594 67.425781 C 80.769531 67.425781 80.441406 67.09375 80.441406 66.683594 C 80.441406 66.277344 80.769531 65.945312 81.183594 65.945312 L 89.335938 65.945312 C 89.75 65.945312 90.078125 66.277344 90.078125 66.683594 C 90.078125 67.09375 89.75 67.425781 89.335938 67.425781 L 81.183594 67.425781 " fill-opacity="1" fill-rule="nonzero"/><path fill="rgb(96.859741%, 31.369019%, 13.729858%)" d="M 88.667969 57.117188 L 88.464844 57.117188 L 88.464844 58.984375 C 89.09375 58.976562 89.5625 58.898438 89.878906 58.757812 C 90.191406 58.605469 90.347656 58.371094 90.347656 58.039062 C 90.347656 57.425781 89.789062 57.117188 88.667969 57.117188 " fill-opacity="1" fill-rule="nonzero"/><path fill="rgb(96.859741%, 31.369019%, 13.729858%)" d="M 108.109375 56.761719 L 108.109375 60.660156 L 105.597656 60.660156 L 105.597656 56.761719 L 102.714844 52.035156 L 105.492188 52.035156 C 106.113281 53.273438 106.558594 54.234375 106.839844 54.90625 L 106.871094 54.90625 C 107.140625 54.21875 107.589844 53.257812 108.195312 52.035156 L 111.039062 52.035156 Z M 91.832031 59.980469 C 91.175781 60.433594 90.304688 60.660156 89.230469 60.660156 L 85.988281 60.660156 L 85.988281 52.035156 L 88.511719 52.035156 C 89.96875 52.035156 91.03125 52.261719 91.671875 52.722656 C 92.316406 53.175781 92.632812 53.75 92.632812 54.453125 C 92.632812 55.214844 92.164062 55.820312 91.234375 56.28125 C 92.292969 56.613281 92.824219 57.246094 92.824219 58.175781 C 92.824219 58.921875 92.492188 59.519531 91.832031 59.980469 Z M 115.898438 49.183594 L 81.132812 49.183594 C 78.738281 49.183594 76.785156 51.136719 76.785156 53.523438 L 76.785156 59.421875 C 76.785156 61.808594 78.738281 63.753906 81.132812 63.753906 L 99.664062 63.753906 L 99.648438 62.960938 L 99.605469 60.710938 C 99.152344 60.839844 98.589844 60.902344 97.910156 60.902344 C 96.59375 60.902344 95.660156 60.636719 95.125 60.101562 C 94.578125 59.566406 94.308594 58.664062 94.308594 57.390625 L 94.308594 52.035156 L 96.851562 52.035156 L 96.851562 58.105469 C 96.851562 58.394531 96.949219 58.621094 97.136719 58.785156 C 97.328125 58.953125 97.585938 59.035156 97.910156 59.035156 C 98.242188 59.035156 98.507812 58.945312 98.695312 58.773438 C 98.886719 58.589844 98.992188 58.347656 98.992188 58.039062 L 98.992188 52.035156 L 101.511719 52.035156 L 101.511719 57.699219 C 101.511719 57.917969 101.503906 58.128906 101.480469 58.328125 L 104.492188 60.265625 L 107.605469 62.28125 C 108.125 62.621094 108.332031 63.234375 108.203125 63.753906 L 115.898438 63.753906 C 118.28125 63.753906 120.242188 61.808594 120.242188 59.421875 L 120.242188 53.523438 C 120.242188 51.136719 118.28125 49.183594 115.898438 49.183594 " fill-opacity="1" fill-rule="nonzero"/><path fill="rgb(96.859741%, 31.369019%, 13.729858%)" d="M 90.128906 54.640625 C 90.128906 54.292969 89.992188 54.050781 89.726562 53.910156 C 89.464844 53.773438 89.046875 53.699219 88.464844 53.691406 L 88.464844 55.554688 C 89.570312 55.53125 90.128906 55.230469 90.128906 54.640625 " fill-opacity="1" fill-rule="nonzero"/><path fill="rgb(96.859741%, 31.369019%, 13.729858%)" d="M 112.328125 69.417969 C 111.328125 69.578125 110.335938 69.742188 109.335938 69.910156 C 109.261719 69.925781 109.1875 69.945312 109.058594 69.976562 C 109.699219 71.09375 110.328125 72.183594 110.957031 73.269531 C 111.117188 73.542969 111.265625 73.8125 111.425781 74.085938 C 111.578125 74.347656 111.488281 74.679688 111.222656 74.832031 L 108.988281 76.085938 C 108.679688 76.265625 108.277344 76.152344 108.097656 75.84375 C 107.332031 74.523438 106.566406 73.203125 105.789062 71.855469 C 105.605469 72.0625 105.441406 72.257812 105.28125 72.453125 C 104.734375 73.101562 104.191406 73.761719 103.644531 74.417969 C 103.480469 74.628906 103.273438 74.734375 103.003906 74.667969 C 102.722656 74.589844 102.570312 74.410156 102.535156 74.136719 C 102.441406 73.390625 102.367188 72.636719 102.277344 71.878906 C 102.132812 70.5 101.980469 69.109375 101.828125 67.726562 C 101.785156 67.296875 101.738281 66.875 101.695312 66.441406 C 101.59375 65.550781 101.503906 64.652344 101.40625 63.753906 C 101.316406 62.894531 101.222656 62.042969 101.125 61.179688 C 101.09375 60.910156 101.210938 60.71875 101.4375 60.589844 C 101.671875 60.457031 101.898438 60.457031 102.132812 60.621094 C 103.5625 61.671875 104.992188 62.714844 106.421875 63.753906 C 106.792969 64.019531 107.15625 64.292969 107.527344 64.554688 C 109.195312 65.769531 110.859375 66.980469 112.523438 68.1875 C 112.710938 68.332031 112.894531 68.488281 112.910156 68.753906 C 112.941406 69.101562 112.710938 69.351562 112.328125 69.417969 " fill-opacity="1" fill-rule="nonzero"/><g clip-path="url(#id1)"><path fill="rgb(96.859741%, 31.369019%, 13.729858%)" d="M 130.730469 92.710938 L 20.519531 92.710938 C 20.179688 92.710938 19.898438 92.433594 19.898438 92.09375 C 19.898438 91.753906 20.179688 91.472656 20.519531 91.472656 L 130.730469 91.472656 C 131.074219 91.472656 131.351562 91.753906 131.351562 92.09375 C 131.351562 92.433594 131.074219 92.710938 130.730469 92.710938 Z M 90.582031 127.007812 C 90.582031 127.007812 90.574219 127.007812 90.574219 127.007812 L 59.84375 127.007812 C 59.492188 127.007812 59.152344 126.851562 58.925781 126.578125 C 58.699219 126.3125 58.601562 125.953125 58.667969 125.605469 L 61.0625 112.34375 C 61.160156 111.769531 61.660156 111.363281 62.242188 111.363281 L 89.835938 111.363281 C 90.410156 111.363281 90.910156 111.769531 91.015625 112.34375 L 91.734375 125.5 C 91.765625 125.597656 91.78125 125.703125 91.78125 125.816406 C 91.78125 126.472656 91.242188 127.007812 90.582031 127.007812 Z M 23.5 27.132812 C 23.5 26.191406 24.273438 25.425781 25.21875 25.425781 L 125.207031 25.425781 C 126.152344 25.425781 126.917969 26.191406 126.917969 27.132812 L 126.917969 86.507812 C 126.917969 87.191406 126.507812 87.789062 125.910156 88.0625 L 24.507812 88.0625 C 23.917969 87.789062 23.5 87.191406 23.5 86.507812 Z M 147.609375 128.664062 L 138.578125 92.644531 C 138.445312 92.078125 138.222656 91.558594 137.9375 91.074219 C 138.460938 89.648438 138.738281 88.105469 138.738281 86.507812 L 138.738281 27.132812 C 138.738281 19.6875 132.667969 13.632812 125.207031 13.632812 L 25.21875 13.632812 C 17.75 13.632812 11.6875 19.6875 11.6875 27.132812 L 11.6875 86.507812 C 11.6875 88.105469 11.96875 89.648438 12.480469 91.074219 C 12.203125 91.558594 11.980469 92.078125 11.839844 92.644531 L 2.742188 128.949219 C 2.289062 130.761719 2.695312 132.671875 3.847656 134.144531 C 4.996094 135.609375 6.761719 136.46875 8.628906 136.46875 L 141.804688 136.46875 C 145.148438 136.46875 147.867188 133.757812 147.867188 130.421875 C 147.867188 129.808594 147.773438 129.222656 147.609375 128.664062 " fill-opacity="1" fill-rule="nonzero"/></g></svg>